<svg xmlns="http://www.w3.org/2000/svg" viewBox="0 0 512 640" x="0px" y="0px">
<g fill="url(#grad2)">
<rect x="100.364" y="421.392" width="70.673" height="70"/>
<rect x="181" y="181.392" width="70" height="70"/>
<rect x="21" y="21.392" width="70" height="70"/>
<rect x="181.037" y="421.392" width="69.963" height="70"/>
<rect x="181" y="21.392" width="70" height="70"/>
<rect x="21" y="181.392" width="70" height="70"/>
<rect x="101" y="101.392" width="70" height="70"/>
<rect x="261" y="261.392" width="70" height="70"/>
<rect x="261" y="421.392" width="70" height="70"/>
<rect x="421" y="261.392" width="70" height="70"/>
<rect x="341.434" y="21.392" width="70.673" height="70"/>
<rect x="421" y="421.392" width="70" height="70"/>
<rect x="341" y="341.392" width="70" height="70"/>
<rect x="261" y="21.392" width="70.435" height="70"/>
</g>
<defs>
    <linearGradient id="grad2" x1="0%" y1="0%" x2="0%" y2="100%">
        <stop offset="0%" style="stop-color:#444444;stop-opacity:1" />
        <stop offset="100%" style="stop-color:#171717;stop-opacity:1" />
    </linearGradient>
</defs>
</svg>