<svg xmlns="http://www.w3.org/2000/svg" xmlns:xlink="http://www.w3.org/1999/xlink" version="1.1" x="0px" y="0px" height="200pt" width="200pt" viewBox="0 0 90 100" style="enable-background:new 0 0 100 100;" transform="rotate(-90)" xml:space="preserve" >
<g fill="url(#grad2)">
<path d="M79.9,48L51.8,31.8c-0.8-0.4-1.7,0.1-1.7,1l0,32.4c0,0.9,0.9,1.4,1.7,1L79.9,50C80.7,49.5,80.7,48.5,79.9,48z"/>
<path d="M48.3,48L20.3,31.8c-0.8-0.4-1.7,0.1-1.7,1l0,32.4c0,0.9,0.9,1.4,1.7,1L48.3,50C49.1,49.5,49.1,48.5,48.3,48z"/>
</g>
<defs>
    <linearGradient id="grad2" x1="0%" y1="0%" x2="0%" y2="100%">
        <stop offset="0%" style="stop-color:#171717;stop-opacity:1" />
        <stop offset="100%" style="stop-color:#444444;stop-opacity:1" />
    </linearGradient>
</defs>
</svg>