<svg xmlns="http://www.w3.org/2000/svg" xmlns:xlink="http://www.w3.org/1999/xlink" version="1.1" x="0px" y="0px" height="100pt" width="100pt" viewBox="0 0 100 125" enable-background="new 0 0 100 100" xml:space="preserve">
<g>
<g>
<path fill-rule="evenodd" clip-rule="evenodd" d="M32.445,9.102c-0.9,0.854-1.809,1.57-2.537,2.437    c-2.707,3.223-2.471,6.969,0.601,10.102c2.327,2.374,5.227,3.8,8.328,4.845c5.384,1.815,10.926,2.322,16.568,1.873    c4.123-0.329,8.113-1.194,11.828-3.09c1.612-0.822,3.088-1.834,4.291-3.207c2.537-2.895,2.615-6.427,0.167-9.416    c-0.679-0.827-1.46-1.567-2.287-2.445c0.551,0.401,1.018,0.729,1.474,1.073c2.507,1.893,4.803,4.016,6.752,6.481    c4.051,5.125,3.554,10.868-1.265,15.294c-2.77,2.543-6.048,4.17-9.575,5.342c-6.02,1.998-12.213,2.545-18.509,2.145    c-5.202-0.33-10.25-1.371-15.071-3.394c-3.475-1.459-6.669-3.355-9.198-6.213c-2.031-2.294-3.297-4.904-3.135-8.061    c0.136-2.665,1.299-4.894,3.036-6.829c2.399-2.673,5.176-4.907,8.237-6.788C32.222,9.208,32.3,9.175,32.445,9.102z"/>
<path fill-rule="evenodd" clip-rule="evenodd" d="M17.718,24.574c-0.315,1.119-0.705,2.168-0.9,3.254    c-0.657,3.64,0.288,6.931,2.36,9.933c2.113,3.061,4.958,5.296,8.153,7.118c4.777,2.722,9.95,4.28,15.347,5.161    c4.513,0.737,9.054,0.925,13.607,0.547c7.125-0.593,13.937-2.254,20.007-6.234c2.666-1.75,4.935-3.913,6.455-6.765    c1.737-3.258,2.016-6.646,0.824-10.147c-0.072-0.213-0.134-0.429-0.201-0.645c0.061-0.023,0.122-0.046,0.182-0.069    c0.726,1.806,1.477,3.601,2.17,5.418c2.7,7.078,0.205,13.456-4.913,18.144c-4.43,4.059-9.765,6.374-15.503,7.836    c-6.16,1.57-12.419,1.989-18.748,1.431c-7.09-0.627-13.862-2.358-20.124-5.822c-4.161-2.303-7.792-5.229-10.273-9.371    c-2.683-4.478-3.214-9.185-1.192-14.063c0.738-1.783,1.623-3.507,2.447-5.255C17.486,24.89,17.6,24.754,17.718,24.574z"/><path fill-rule="evenodd" clip-rule="evenodd" d="M88.219,42.895c0.1,1.264,0.216,2.528,0.296,3.794    c0.541,8.509-3.458,14.71-10.05,19.527c-5.08,3.711-10.856,5.813-17.001,6.946c-9.799,1.807-19.416,1.094-28.807-2.258    C27.329,69,22.489,66.257,18.442,62.238c-3.424-3.397-5.849-7.356-6.73-12.164c-0.421-2.3-0.304-4.601-0.012-6.901    c0.144-1.128,0.326-2.252,0.57-3.368c0,0.815-0.021,1.632,0.004,2.448c0.134,4.219,1.732,7.885,4.315,11.15    c3.519,4.447,8.122,7.435,13.26,9.666c5.417,2.352,11.098,3.633,16.975,4.093c8.207,0.644,16.204-0.274,23.906-3.271    c4.549-1.772,8.665-4.24,12.022-7.847c2.858-3.067,4.726-6.629,5.192-10.841c0.082-0.758,0.012-1.534,0.012-2.302    C88.043,42.898,88.131,42.896,88.219,42.895z"/><path fill-rule="evenodd" clip-rule="evenodd" d="M11.54,54.317c1.203,6.626,4.809,11.713,9.948,15.82    c5.565,4.447,11.983,7.05,18.914,8.424c9.218,1.823,18.332,1.411,27.262-1.637c5.598-1.911,10.61-4.799,14.646-9.214    c2.479-2.712,4.271-5.811,5.246-9.366c0.054-0.197,0.116-0.393,0.174-0.587c0.058,0.013,0.114,0.027,0.172,0.042    c-0.371,1.626-0.691,3.267-1.12,4.879c-1.588,5.973-5.23,10.495-10.141,14.068c-5.212,3.789-11.108,5.957-17.422,6.994    c-9.026,1.484-17.854,0.667-26.408-2.629c-5.743-2.212-10.818-5.438-14.867-10.148c-3.196-3.715-5.188-7.986-5.883-12.849    C11.879,56.851,11.713,55.583,11.54,54.317z"/><path fill-rule="evenodd" clip-rule="evenodd" d="M15.219,69.142c0.792,1.3,1.513,2.651,2.392,3.893    c3.704,5.229,8.704,8.837,14.529,11.353c6.935,2.997,14.191,4.146,21.718,3.64c7.221-0.483,13.98-2.433,20.081-6.41    c3.666-2.391,6.717-5.4,8.966-9.183c0.067-0.113,0.145-0.219,0.321-0.277c-0.12,0.239-0.243,0.475-0.359,0.717    c-4.186,8.617-11.123,13.969-20.182,16.554c-12.227,3.489-23.921,2.099-34.831-4.583c-5.998-3.674-10.065-8.993-12.584-15.527    C15.25,69.259,15.235,69.197,15.219,69.142z"/>
<path fill-rule="evenodd" clip-rule="evenodd" d="M51.488,12.481c-2.209-0.051-4.142-0.317-5.901-1.283    c-0.54-0.296-1.061-0.693-1.465-1.155c-0.819-0.938-0.717-1.995,0.211-2.844c1.071-0.982,2.406-1.394,3.798-1.632    c2.532-0.433,5.02-0.274,7.405,0.731c0.615,0.259,1.216,0.607,1.735,1.024c1.325,1.064,1.284,2.482-0.046,3.537    c-1.156,0.917-2.535,1.25-3.949,1.459C52.61,12.419,51.933,12.444,51.488,12.481z"/>
<path fill-rule="evenodd" clip-rule="evenodd" d="M72.516,86.054C60.72,97.505,37.794,98.438,24.221,83.29    c6.659,6.252,14.645,9.373,23.669,9.891C56.91,93.696,65.198,91.521,72.516,86.054z"/>
</g>
</g></svg>