<svg xmlns="http://www.w3.org/2000/svg" xmlns:xlink="http://www.w3.org/1999/xlink" version="1.1" x="0px" y="0px" height="100pt" width="100pt" viewBox="0 0 100 125" enable-background="new 0 0 100 100" xml:space="preserve">
<g><g>
<path fill-rule="evenodd" clip-rule="evenodd" d="M30.568,33.979c0.838,1.473,1.64,2.878,2.44,4.287    c2.275,4.006,4.545,8.015,6.834,12.014c0.12,0.209,0.373,0.415,0.602,0.478c12.388,3.371,24.78,6.727,37.173,10.078    c0.335,0.091,0.549,0.243,0.712,0.571c0.941,1.904,1.914,3.794,2.874,5.688c0.078,0.155,0.149,0.317,0.27,0.574    c-0.722-0.16-1.359-0.297-1.994-0.444c-13.55-3.151-27.098-6.304-40.648-9.45c-0.323-0.074-0.528-0.217-0.681-0.528    c-3.237-6.543-6.482-13.082-9.738-19.615c-0.153-0.307-0.138-0.511,0.066-0.782C29.17,35.931,29.835,34.99,30.568,33.979z"/><path fill-rule="evenodd" clip-rule="evenodd" d="M26.162,40.06c0.232,0.515,0.433,0.952,0.625,1.392    c3.278,7.468,6.559,14.934,9.825,22.408c0.14,0.319,0.31,0.473,0.648,0.538c4.554,0.882,9.106,1.774,13.658,2.667    c6.381,1.25,12.762,2.503,19.144,3.754c3.231,0.634,6.461,1.268,9.692,1.901c0.186,0.035,0.371,0.081,0.688,0.151    c-0.243,0.113-0.378,0.181-0.515,0.236c-2.746,1.123-5.506,2.218-8.232,3.383c-0.742,0.317-1.406,0.092-2.09-0.014    c-5.447-0.857-10.893-1.741-16.338-2.615c-5.879-0.944-11.757-1.891-17.636-2.828c-0.309-0.048-0.463-0.186-0.579-0.481    c-3.557-9.141-7.123-18.276-10.696-27.41c-0.105-0.271-0.108-0.461,0.079-0.706C25.011,41.679,25.557,40.897,26.162,40.06z"/><path fill-rule="evenodd" clip-rule="evenodd" d="M74.473,53.847c-1.346-0.415-2.564-0.789-3.782-1.168    c-9.46-2.943-18.917-5.89-28.38-8.82c-0.451-0.139-0.742-0.365-0.998-0.757c-2.648-4.067-5.311-8.125-7.985-12.175    c-0.207-0.312-0.203-0.504,0.019-0.799c0.867-1.155,1.703-2.333,2.595-3.563c0.127,0.155,0.235,0.282,0.338,0.414    c2.299,2.985,4.594,5.973,6.904,8.948c0.167,0.214,0.424,0.407,0.679,0.497c8.649,3.066,17.301,6.122,25.96,9.164    c0.436,0.153,0.69,0.392,0.893,0.797c1.142,2.294,2.31,4.575,3.468,6.861C74.263,53.404,74.336,53.564,74.473,53.847z"/><path fill-rule="evenodd" clip-rule="evenodd" d="M22.501,45.12c0.544,1.554,1.053,3.002,1.561,4.452    c3.165,9.058,6.333,18.116,9.489,27.178c0.134,0.385,0.307,0.542,0.729,0.593c3.802,0.46,7.602,0.949,11.401,1.435    c3.96,0.505,7.92,1.016,11.881,1.521c0.887,0.113,1.771,0.215,2.657,0.327c0.232,0.03,0.463,0.075,0.844,0.139    c-0.272,0.126-0.406,0.195-0.547,0.253c-3.317,1.354-6.642,2.693-9.947,4.076c-0.661,0.277-1.281,0.112-1.911,0.06    c-3.381-0.297-6.758-0.626-10.136-0.946c-2.005-0.19-4.01-0.376-6.012-0.594c-0.153-0.015-0.358-0.245-0.412-0.414    c-0.902-2.826-1.782-5.658-2.672-8.488c-2.804-8.923-5.608-17.845-8.429-26.761c-0.128-0.406-0.094-0.688,0.167-1.013    C21.611,46.38,22.012,45.791,22.501,45.12z"/><path fill-rule="evenodd" clip-rule="evenodd" d="M42.671,17.277c1.332,1.174,2.578,2.316,3.877,3.395    c0.475,0.395,1.053,0.689,1.622,0.943c4.117,1.839,8.24,3.659,12.366,5.477c0.34,0.15,0.578,0.352,0.75,0.696    c1.491,2.972,3.002,5.933,4.506,8.897c0.058,0.114,0.103,0.235,0.186,0.423c-0.186-0.058-0.317-0.088-0.442-0.138    c-6.662-2.642-13.323-5.285-19.981-7.934c-0.204-0.081-0.418-0.196-0.566-0.354c-1.923-2.073-3.835-4.155-5.75-6.236    c-0.054-0.058-0.098-0.125-0.162-0.211C40.269,20.59,41.456,18.952,42.671,17.277z"/><path fill-rule="evenodd" clip-rule="evenodd" d="M38.015,90.19c-2.696,1.099-5.392,2.195-8.135,3.312    c-0.343-1.275-0.679-2.506-1.007-3.738c-3.43-12.874-6.858-25.749-10.298-38.621c-0.09-0.338-0.059-0.586,0.164-0.846    c0.217-0.252,0.402-0.533,0.66-0.879c0.369,1.288,0.713,2.48,1.051,3.675c3.418,12.035,6.836,24.071,10.248,36.11    c0.083,0.294,0.206,0.417,0.521,0.437c2.108,0.12,4.214,0.261,6.322,0.397c0.157,0.01,0.313,0.034,0.469,0.053    C38.012,90.125,38.014,90.157,38.015,90.19z"/><path fill-rule="evenodd" clip-rule="evenodd" d="M55.457,16.57c-2.911-1.598-6.107-2.669-8.792-4.804    c1.256-1.736,2.508-3.465,3.816-5.27c1.708,3.367,3.382,6.667,5.057,9.968C55.51,16.5,55.483,16.535,55.457,16.57z"/>
</g></g>
</svg>