<svg xmlns="http://www.w3.org/2000/svg" xmlns:xlink="http://www.w3.org/1999/xlink" version="1.0" x="0px" y="0px" height="100pt" width="100pt" viewBox="0 0 100 125" enable-background="new 0 0 100 100" xml:space="preserve">
<g fill="black">
<path fill-rule="evenodd" clip-rule="evenodd" d="M46.89,57.059c0.339-0.6,0.745-0.381,1.152-0.278   c12.391,3.104,24.783,6.215,37.172,9.327c2.055,0.515,4.11,1.029,6.266,1.569c-0.224-0.98-0.71-1.718-0.98-2.535   c-0.193-0.588-0.563-0.863-1.178-1.032c-14.109-3.858-28.211-7.739-42.314-11.621c-1.111-0.307-0.903-0.314-1.433,0.615   c-3.006,5.298-6.006,10.601-9.008,15.901c-0.963,1.702-1.925,3.405-2.939,5.194c1.942,0.248,3.783,0.479,5.621,0.723   c4.034,0.533,8.066,1.081,12.102,1.61c4.036,0.526,8.073,1.026,12.108,1.554c4.557,0.597,9.114,1.191,13.664,1.833   c1.086,0.15,2.038,0.024,2.999-0.527c1.062-0.61,2.206-1.071,3.301-1.625c0.261-0.133,0.613-0.159,0.775-0.567   c-14.9-2.366-29.778-4.729-44.816-7.117C41.966,65.609,44.448,61.345,46.89,57.059z"/>
<path fill-rule="evenodd" clip-rule="evenodd" d="M28.744,77.74c5.487-9.862,10.926-19.639,16.362-29.409   c14.547,4.334,29.024,8.646,43.741,13.031c-0.365-0.856-0.674-1.483-0.899-2.139c-0.26-0.748-0.701-1.16-1.492-1.411   c-11.604-3.681-23.194-7.401-34.79-11.108c-2.333-0.747-4.676-1.457-6.998-2.233c-0.481-0.161-0.717-0.106-0.884,0.35   c-0.047,0.129-0.134,0.245-0.201,0.368C37.198,56.86,30.815,68.53,24.436,80.203c-0.162,0.296-0.39,0.569-0.431,0.963   c1.04,0.263,2.101,0.225,3.143,0.324c2.832,0.269,5.666,0.506,8.499,0.75c2.938,0.254,5.876,0.499,8.815,0.751   c2.833,0.241,5.667,0.487,8.501,0.73c2.869,0.244,5.738,0.485,8.606,0.733c2.028,0.174,4.059,0.348,6.086,0.533   c0.577,0.053,1.09-0.059,1.609-0.331c1.117-0.579,2.266-1.095,3.393-1.658c0.183-0.09,0.522-0.081,0.444-0.52   C58.37,80.907,43.621,79.331,28.744,77.74z"/>
<path fill-rule="evenodd" clip-rule="evenodd" d="M19.963,84.189c-0.048-0.318,0.056-0.421,0.122-0.542   c7.556-14.062,15.108-28.123,22.662-42.185c0.426-0.792,0.432-0.788,1.347-0.476c13.673,4.664,27.343,9.331,41.021,13.979   c0.306,0.104,0.609,0.358,1.064,0.206c-0.296-0.691-0.626-1.34-0.846-2.023c-0.205-0.644-0.621-0.929-1.229-1.146   c-4.71-1.677-9.41-3.389-14.113-5.086c-8.981-3.242-17.963-6.481-26.947-9.721c-0.821-0.295-0.827-0.296-1.243,0.486   c-0.919,1.732-1.832,3.468-2.749,5.201C31.454,57.238,23.856,71.595,16.261,85.95c-0.191,0.361-0.365,0.729-0.594,1.19   c0.472,0.047,0.845,0.096,1.219,0.118c1.543,0.085,3.087,0.163,4.631,0.24c6.105,0.3,12.21,0.588,18.314,0.901   c6.175,0.317,12.348,0.654,18.521,0.995c0.716,0.04,1.37-0.037,2.019-0.396c0.915-0.51,1.877-0.935,2.816-1.399   c0.169-0.084,0.45-0.083,0.352-0.441C49.012,86.148,34.466,85.21,19.963,84.189z"/>
<path fill-rule="evenodd" clip-rule="evenodd" d="M12.621,88.759c9.426-18.101,18.86-36.199,28.292-54.297   c0.463-0.886,0.466-0.887,1.376-0.542c13.508,5.127,27.014,10.256,40.525,15.369c0.263,0.099,0.528,0.378,0.899,0.175   c-0.261-0.624-0.536-1.227-0.762-1.847c-0.217-0.599-0.594-0.944-1.205-1.186c-9.956-3.933-19.902-7.89-29.849-11.844   c-3.576-1.42-7.153-2.835-10.718-4.284c-0.527-0.215-0.85-0.229-1.032,0.369c-0.04,0.132-0.128,0.249-0.192,0.373   c-3.408,6.634-6.817,13.268-10.223,19.902c-6.521,12.707-13.039,25.418-19.573,38.12c-0.302,0.586-0.462,1.144-0.356,1.803   c0.055,0.345,0.151,0.492,0.508,0.496c0.632,0.006,1.264,0.058,1.896,0.074c6.849,0.193,13.699,0.375,20.548,0.573   c6.216,0.179,12.434,0.328,18.649,0.589c1.477,0.063,2.617-0.512,3.791-1.311c-14.314-0.529-28.629-1.06-42.947-1.592   C12.265,89.284,12.479,89.033,12.621,88.759z"/>
<path fill-rule="evenodd" clip-rule="evenodd" d="M39.201,27.899c0.493-0.975,0.494-0.974,1.512-0.552   c13.343,5.534,26.687,11.068,40.029,16.603c0.183,0.075,0.351,0.244,0.61,0.033c-0.222-0.527-0.496-1.053-0.666-1.611   c-0.206-0.674-0.66-0.989-1.278-1.255c-13.138-5.661-26.268-11.34-39.4-17.015c-1.151-0.497-1.151-0.497-1.712,0.627   c-9.364,18.761-18.72,37.527-28.112,56.273c-0.647,1.291-1.172,2.517-0.807,3.987c0.098,0.396,0.015,0.837,0.015,1.345   c0.447-0.156,0.465-0.444,0.566-0.644C19.712,66.431,29.457,47.164,39.201,27.899z"/>
<path fill-rule="evenodd" clip-rule="evenodd" d="M79.254,39.119c-0.307-0.731-0.54-1.203-0.703-1.698   c-0.225-0.681-0.666-1.05-1.325-1.355c-12.862-5.937-25.713-11.903-38.567-17.863c-0.317-0.147-0.632-0.302-0.953-0.442   c-0.214-0.093-0.404-0.079-0.52,0.17c-0.088,0.19-0.199,0.369-0.291,0.557C27.618,37.557,18.343,56.624,9.069,75.691   c-0.151,0.312-0.314,0.614-0.3,0.992c0.034,0.926,0.113,1.843,0.413,2.789c9.645-19.576,19.29-39.149,28.953-58.762   C51.802,26.83,65.416,32.924,79.254,39.119z"/>
<path fill-rule="evenodd" clip-rule="evenodd" d="M93.405,71.929c-0.228-0.536-0.349-1.089-1.103-1.242   c-2.573-0.525-5.131-1.12-7.693-1.697c-7.651-1.726-15.301-3.461-22.953-5.185c-4.27-0.962-8.546-1.897-12.812-2.882   c-0.471-0.109-0.683-0.032-0.914,0.371c-0.831,1.461-1.699,2.899-2.587,4.404c0.369,0.213,0.682,0.25,0.992,0.311   c3.132,0.593,6.264,1.192,9.396,1.792c5.335,1.02,10.668,2.039,16.003,3.061c5.333,1.021,10.67,2.031,15.999,3.075   c2.516,0.495,2.509,0.527,4.763-0.575c0.157-0.076,0.317-0.146,0.473-0.225C93.755,72.747,93.754,72.747,93.405,71.929z"/>
<path fill-rule="evenodd" clip-rule="evenodd" d="M56.842,24.519c6.692,3.197,13.382,6.401,20.299,9.711   c-0.215-0.513-0.359-0.786-0.446-1.077c-0.308-1.034-0.963-1.645-1.957-2.129c-9.662-4.701-19.298-9.458-28.94-14.201   c-3.045-1.498-6.086-3.002-9.131-4.502c-0.742-0.365-0.743-0.36-1.118,0.417c-0.031,0.063-0.064,0.125-0.094,0.188   C26.567,31.64,17.688,50.356,8.772,69.056C8.117,70.432,8.46,71.721,8.7,73.082c9.316-19.385,18.632-38.771,27.963-58.187   C43.454,18.134,50.149,21.323,56.842,24.519z"/>
<path fill-rule="evenodd" clip-rule="evenodd" d="M20.358,41.218c4.849-10.326,9.696-20.654,14.545-30.98   c0.377-0.804,0.384-0.802,1.177-0.408c0.125,0.062,0.254,0.121,0.378,0.184c12.092,6.111,24.183,12.224,36.274,18.334   c0.712,0.359,1.425,0.713,2.136,1.069c-0.194-0.903-0.368-1.676-1.247-2.126C62.373,21.529,51.143,15.733,39.908,9.945   c-1.555-0.802-3.114-1.597-4.659-2.418c-0.379-0.202-0.627-0.202-0.872,0.184C34.04,8.24,33.612,8.7,33.342,9.287   c-2.223,4.833-4.468,9.654-6.708,14.479C20.503,36.97,14.372,50.174,8.24,63.376c-0.417,0.9-0.426,2.662,0.005,3.604   c0.102-0.206,0.198-0.391,0.286-0.581C12.474,58.007,16.417,49.613,20.358,41.218z"/><path fill-rule="evenodd" clip-rule="evenodd" d="M27.566,16.405c-0.868,1.181-1.953,2.205-2.573,3.569   C19.321,32.454,13.655,44.938,7.942,57.4c-0.6,1.308-0.391,2.535-0.258,3.975c1.724-3.099,21.187-45.782,21.242-46.582   C28.351,15.248,27.975,15.849,27.566,16.405z"/>
<path fill-rule="evenodd" clip-rule="evenodd" d="M21.104,24.719c-0.544,0.442-0.911,1.047-1.332,1.592   c-0.829,1.076-1.707,2.103-2.271,3.384c-3.294,7.484-6.619,14.956-9.989,22.407c-0.548,1.213-0.393,2.352-0.069,3.582   c4.622-10.271,9.246-20.543,13.868-30.814C21.243,24.82,21.174,24.77,21.104,24.719z"/>
<path fill-rule="evenodd" clip-rule="evenodd" d="M11.334,37.423c-1.362,3.143-2.679,6.307-4.125,9.411   c-0.529,1.133-0.563,2.19-0.251,3.476c0.798-1.178,7.362-16.188,7.366-16.976C13.303,34.679,12.026,35.829,11.334,37.423z"/>
<path fill-rule="evenodd" clip-rule="evenodd" d="M8.424,40.738C7.806,41.523,7.19,42.31,6.57,43.093   c-0.111,0.141-0.21,0.288-0.197,0.47c0.043,0.623,0.098,1.247,0.149,1.87c0.062,0.005,0.122,0.011,0.184,0.018   c0.653-1.536,1.306-3.071,1.958-4.606C8.584,40.809,8.504,40.773,8.424,40.738z"/>
</g>
</svg>