<svg xmlns="http://www.w3.org/2000/svg" viewBox="0 -10 32 40" x="0px" y="0px">
<g fill="url(#grad2)">
<path d="M10.09,14.13a1,1,0,0,1,0-1l5-8.74a1,1,0,0,1,1.74,0l5,8.74a1,1,0,0,1,0,1,1,1,0,0,1-.87.5H11A1,1,0,0,1,10.09,14.13Zm16.83,4.1H19.56a1,1,0,0,0-1,1v7.36a1,1,0,0,0,1,1h7.36a1,1,0,0,0,1-1V19.23A1,1,0,0,0,26.92,18.23ZM9.24,17.76a5.16,5.16,0,1,0,5.15,5.15A5.16,5.16,0,0,0,9.24,17.76Z"/>
</g>
<defs>
    <linearGradient id="grad2" x1="0%" y1="0%" x2="0%" y2="100%">
        <stop offset="0%" style="stop-color:#171717;stop-opacity:1" />
        <stop offset="100%" style="stop-color:#444444;stop-opacity:1" />
    </linearGradient>
</defs>
</svg>