<?xml version="1.0" standalone="no"?>
<!DOCTYPE svg PUBLIC "-//W3C//DTD SVG 20010904//EN"
 "http://www.w3.org/TR/2001/REC-SVG-20010904/DTD/svg10.dtd">
<svg version="1.0" xmlns="http://www.w3.org/2000/svg"
 width="40.000000pt" height="40.000000pt" viewBox="0 0 72.000000 53.000000"
 preserveAspectRatio="xMidYMid meet">

<g transform="translate(0.000000,53.000000) scale(0.100000,-0.100000)"
fill="#222831" stroke="none" >
<path d="M286 439 c-25 -20 -28 -20 -45 -5 -20 18 -41 21 -41 6 0 -5 4 -10 8
-10 5 0 16 -6 26 -13 16 -12 15 -13 -10 -12 -15 0 -29 -6 -32 -13 -3 -9 3 -11
22 -6 25 6 26 4 26 -34 0 -22 3 -54 6 -71 l7 -31 92 0 c105 0 105 -1 105 93 0
42 -5 54 -34 83 -41 41 -89 46 -130 13z m59 -104 c22 0 50 4 63 8 21 8 23 6
20 -15 -3 -22 -7 -23 -83 -23 -76 0 -80 1 -83 23 -3 21 -1 23 20 15 13 -4 41
-8 63 -8z"/>
<path d="M295 320 c3 -5 11 -10 16 -10 6 0 7 5 4 10 -3 6 -11 10 -16 10 -6 0
-7 -4 -4 -10z"/>
<path d="M375 320 c-3 -5 1 -10 9 -10 9 0 16 5 16 10 0 6 -4 10 -9 10 -6 0
-13 -4 -16 -10z"/>
<path d="M186 143 c3 -54 9 -101 11 -105 6 -10 290 -10 297 0 2 4 8 51 12 105
l7 97 -167 0 -167 0 7 -97z"/>
<path d="M136 89 c-37 -29 -34 -49 9 -49 33 0 35 2 35 35 0 40 -7 43 -44 14z"/>
<path d="M510 75 c0 -33 2 -35 34 -35 47 0 52 13 15 44 -40 34 -49 33 -49 -9z"/>
</g>
</svg>
