<svg xmlns="http://www.w3.org/2000/svg" viewBox="0 0 512 640" x="0px" y="0px">
<title>cashier- market- counter- shopping- store</title>
<g><path d="M116,120h14a22.025,22.025,0,0,0,22-22V72H106a2,2,0,0,0-2,2v34A12.013,12.013,0,0,0,116,120Z"/>
<path d="M322,120a22.025,22.025,0,0,0,22-22V72H296V98a22.025,22.025,0,0,0,22,22Z"/>
<path d="M376,44a12.013,12.013,0,0,0-12-12H148a12.013,12.013,0,0,0-12,12V56H376Z"/>
<path d="M136,468a12.013,12.013,0,0,0,12,12H364a12.013,12.013,0,0,0,12-12V432H136Zm72-20h96v16H208Z"/>
<path d="M194,120a22.025,22.025,0,0,0,22-22V72H168V98a22.025,22.025,0,0,0,22,22Z"/>
<path d="M160,121.3a38.029,38.029,0,0,1-24,14.228V160H376V135.526A38.029,38.029,0,0,1,352,121.3,37.955,37.955,0,0,1,322,136h-4a37.955,37.955,0,0,1-30-14.7A37.955,37.955,0,0,1,258,136h-4a37.955,37.955,0,0,1-30-14.7A37.955,37.955,0,0,1,194,136h-4A37.955,37.955,0,0,1,160,121.3Z"/>
<path d="M258,120a22.025,22.025,0,0,0,22-22V72H232V98a22.025,22.025,0,0,0,22,22Z"/>
<path d="M209.441,240H126.559L106.237,341.608A2,2,0,0,0,108.2,344H227.8a2,2,0,0,0,1.961-2.392ZM200,260a28.032,28.032,0,0,1-28,28h-8a28.032,28.032,0,0,1-28-28v-4h16v4a12.013,12.013,0,0,0,12,12h8a12.013,12.013,0,0,0,12-12v-4h16Z"/>
<path d="M360,98a22.025,22.025,0,0,0,22,22h14a12.013,12.013,0,0,0,12-12V74a2,2,0,0,0-2-2H360Z"/>
<rect x="296" y="344" width="120" height="32" rx="12" ry="12"/>
<path d="M438,176H74a10,10,0,0,0-10,10V406a10,10,0,0,0,10,10H438a10,10,0,0,0,10-10V186A10,10,0,0,0,438,176ZM80,208a8,8,0,0,1,8-8h16v16H96v8H80Zm24,184H88a8,8,0,0,1-8-8V368H96v8h8Zm4.2-32a18,18,0,0,1-17.651-21.53l21.608-108.039A8,8,0,0,1,120,224h96a8,8,0,0,1,7.845,6.431L245.453,338.47A18,18,0,0,1,227.8,360ZM256,384a8,8,0,0,1-8,8H232V376h8v-8h16Zm0-160H240v-8h-8V200h16a8,8,0,0,1,8,8Zm41.6-20.8A8,8,0,0,1,304,200h80v16H308l-21.6,28.8-12.8-9.6ZM312,256V240h48v16Zm32,24v16H312V280Zm88,84a28.032,28.032,0,0,1-28,28H308a28.032,28.032,0,0,1-28-28v-8a28.032,28.032,0,0,1,28-28h96a28.032,28.032,0,0,1,28,28Zm0-68H360V280h72Zm0-40H376V240h56Zm0-40H400V200h32Z"/>
</g>
</svg>