<svg xmlns="http://www.w3.org/2000/svg" xmlns:xlink="http://www.w3.org/1999/xlink" version="1.1" x="0px" y="0px" viewBox="0 0 100 125" style="enable-background:new 0 0 100 100;" xml:space="preserve">
<path d="M98.5,1.4H1.5c-0.6,0-1.1,0.5-1.1,1.1v8.3h99.4V2.5C99.7,1.9,99.2,1.4,98.5,1.4z M73.3,6c0.1-3.2,4.8-3.2,4.8,0  C78.1,9.2,73.3,9.2,73.3,6z M81.9,6c0.1-3.2,4.8-3.2,4.8,0C86.7,9.2,81.9,9.2,81.9,6z M90.5,6c0.1-3.2,4.8-3.2,4.9,0  C95.3,9.2,90.5,9.2,90.5,6z M0.3,97.5c0,0.6,0.5,1.1,1.1,1.1h97.1c0.6,0,1.1-0.5,1.1-1.1V14.3H0.3V97.5z M56.5,18.6h6  c0.9,0,1.7,0.8,1.7,1.7v6c0,2.3-3.4,2.3-3.5,0c0,0,0-4.2,0-4.2h-4.2C54.2,22,54.2,18.7,56.5,18.6z M49.4,36.4c0-1,0.8-1.7,1.7-1.7  H59c2.3,0,2.3,3.4,0,3.5h-7.9C50.1,38.1,49.4,37.3,49.4,36.4z M50.7,43.6c0,1-0.8,1.7-1.7,1.7h-1.7c-0.9,0-1.7-0.8-1.7-1.7  c0-1,0.8-1.7,1.7-1.7H49C50,41.8,50.7,42.6,50.7,43.6z M54.6,40.2H58c2.3,0,2.3,3.4,0,3.5h-3.4C52.3,43.6,52.3,40.2,54.6,40.2z   M56.5,48.1h4.2v-4.2c0-2.3,3.4-2.3,3.5,0c0,0,0,6,0,6c0,1-0.8,1.7-1.7,1.7h-6C54.2,51.5,54.2,48.1,56.5,48.1z M52.8,25.7h4.6  c1,0,1.7,0.8,1.7,1.7v3.2c0,2.3-3.4,2.3-3.5,0c0,0,0-1.4,0-1.4h-2.9C50.5,29.2,50.5,25.8,52.8,25.7z M47.3,22.5H49  c2.3,0,2.3,3.4,0,3.5h-1.7C45,25.9,45,22.6,47.3,22.5z M44.1,30c0-2.3,3.4-2.3,3.5,0c0,0,0,5.3,0,5.3c0,1-0.8,1.7-1.7,1.7  c-0.9,0-1.7-0.8-1.7-1.7V30z M43.3,25.1c0,1-0.8,1.7-1.7,1.7h-3.4c-1,0-1.7-0.8-1.7-1.7c0-1,0.8-1.7,1.7-1.7h3.4  C42.6,23.3,43.3,24.1,43.3,25.1z M38.2,40.2h3.4c1,0,1.7,0.8,1.7,1.7v3.2c0,1-0.8,1.7-1.7,1.7h-3.4c-1,0-1.7-0.8-1.7-1.7v-3.2  C36.4,41,37.2,40.2,38.2,40.2z M36.4,37.6c0-1,0.8-1.7,1.7-1.7h1.7c0.9,0,1.7,0.8,1.7,1.7s-0.8,1.7-1.7,1.7h-1.7  C37.2,39.3,36.4,38.6,36.4,37.6z M41.6,35h-3.4c-1,0-1.7-0.8-1.7-1.7V30c0-1,0.8-1.7,1.7-1.7h3.4c1,0,1.7,0.8,1.7,1.7v3.2  C43.3,34.2,42.6,35,41.6,35z M31.3,20.3c0-1,0.8-1.7,1.7-1.7h6c2.3,0,2.3,3.4,0,3.5h-4.2v4.2c0,2.3-3.4,2.3-3.5,0  C31.3,26.3,31.3,20.3,31.3,20.3z M31.3,43.8c0-2.3,3.4-2.3,3.5,0c0,0,0,4.2,0,4.2H39c2.3,0,2.3,3.4,0,3.5  C29.9,51.4,31.4,52.9,31.3,43.8z M12.1,65.3c0-0.6,0.3-1.2,0.9-1.5l17-9.8c0.5-0.3,1.2-0.3,1.7,0l16.1,9.3L63.9,54  c0.5-0.3,1.2-0.3,1.7,0l17,9.8c0,0,0,0,0,0c0.5,0.3,0.9,0.9,0.9,1.5v19.6c0,0.6-0.3,1.2-0.9,1.5l-17,9.8c-0.5,0.3-1.2,0.3-1.7,0  l-16.1-9.3l-16.1,9.3c-0.3,0.2-0.6,0.2-0.9,0.2c-0.3,0-0.6-0.1-0.9-0.2l-17-9.8c-0.5-0.3-0.9-0.9-0.9-1.5V65.3z M29,91.7l-13.5-7.8  V68.3L29,76.1V91.7z M66.5,76.1L80,68.3v15.6l-13.5,7.8V76.1z M64.7,73.1l-13.5-7.8l13.5-7.8l13.5,7.8L64.7,73.1z M63,91.7  l-13.5-7.8V68.3c2.4,1.4,11.3,6.5,13.5,7.8V91.7z M32.5,76.1c2.3-1.3,11.1-6.4,13.5-7.8v15.6l-13.5,7.8V76.1z M30.8,73.1l-13.5-7.8  l13.5-7.8l13.5,7.8L30.8,73.1z"/>
</svg>