<svg xmlns="http://www.w3.org/2000/svg" xmlns:xlink="http://www.w3.org/1999/xlink" version="1.1" x="0px" y="0px" viewBox="0 0 64 80" style="enable-background:new 0 0 64 64;" xml:space="preserve">
<title>Artboard 17</title>
<path d="M7,54h50c0.6,0,1-0.4,1-1V18H6v35C6,53.6,6.4,54,7,54z M20,32h24c0.6,0,1,0.4,1,1s-0.4,1-1,1H20c-0.6,0-1-0.4-1-1  S19.4,32,20,32z M20,36h24c0.6,0,1,0.4,1,1s-0.4,1-1,1H20c-0.6,0-1-0.4-1-1S19.4,36,20,36z"/>
<path d="M6,16h52v-5c0-0.6-0.4-1-1-1H7c-0.6,0-1,0.4-1,1V16z M47,12h4c0.6,0,1,0.4,1,1s-0.4,1-1,1h-4c-0.6,0-1-0.4-1-1  S46.4,12,47,12z M30,12h4c0.6,0,1,0.4,1,1s-0.4,1-1,1h-4c-0.6,0-1-0.4-1-1S29.4,12,30,12z M13,12h4c0.6,0,1,0.4,1,1s-0.4,1-1,1h-4  c-0.6,0-1-0.4-1-1S12.4,12,13,12z"/>
</svg>